<svg xmlns="http://www.w3.org/2000/svg" viewBox="0 0 24 24" fill="none">
  <path d="M12 2C6.48 2 2 6.58 2 12.24c0 4.52 2.87 8.35 6.84 9.7.5.1.68-.22.68-.49 0-.24-.01-1.04-.01-1.89-2.78.62-3.37-1.22-3.37-1.22-.46-1.2-1.12-1.51-1.12-1.51-.92-.65.07-.64.07-.64 1.01.07 1.55 1.08 1.55 1.08.91 1.59 2.38 1.13 2.96.86.09-.68.35-1.13.63-1.39-2.22-.26-4.56-1.14-4.56-5.08 0-1.12.39-2.04 1.03-2.76-.1-.26-.45-1.31.1-2.73 0 0 .84-.27 2.75 1.05A9.34 9.34 0 0 1 12 6.9c.85 0 1.71.12 2.51.37 1.9-1.32 2.74-1.05 2.74-1.05.55 1.42.2 2.47.1 2.73.64.72 1.02 1.64 1.02 2.76 0 3.95-2.35 4.82-4.59 5.07.36.32.68.95.68 1.91 0 1.38-.01 2.49-.01 2.83 0 .27.18.6.69.49A10.26 10.26 0 0 0 22 12.24C22 6.58 17.52 2 12 2Z" fill="#111827"/>
</svg>
